<?xml version="1.0" encoding="utf-8"?>
<!-- Generator: Adobe Illustrator 23.1.1, SVG Export Plug-In . SVG Version: 6.00 Build 0)  -->
<svg version="1.1" id="Camada_7" xmlns="http://www.w3.org/2000/svg" xmlns:xlink="http://www.w3.org/1999/xlink" x="0px" y="0px"
	 viewBox="0 0 326.72 424.52" style="enable-background:new 0 0 326.72 424.52;" xml:space="preserve">
<style type="text/css">
	.st0{opacity:0.3;fill:#D85433;}
</style>
<path class="st0" d="M323.18,94.16c0,0-12.84,56.93-16.19,102.14c-3.35,45.21-5.58,84.28-16.19,108.84
	c-10.6,24.56-37.95,85.4-71.44,103.26c-33.49,17.86-65.3,18.42-94.33-12.84s-35.16-81.49-36.28-91.53
	c-1.12-10.05,3.91-51.35-24.56-77.02s-74.79-49.12-57.49-96S83.74,27.19,92.67,21.61s31.26-24.56,76.46-16.19s84.28,16.74,96,18.42
	C276.86,25.51,329.88,28.3,323.18,94.16z"/>
</svg>
