<?xml version="1.0" encoding="utf-8"?>
<!-- Generator: Adobe Illustrator 23.1.1, SVG Export Plug-In . SVG Version: 6.00 Build 0)  -->
<svg version="1.1" id="Camada_8_cópia" xmlns="http://www.w3.org/2000/svg" xmlns:xlink="http://www.w3.org/1999/xlink" x="0px"
	 y="0px" viewBox="0 0 1001.5 744.8" style="enable-background:new 0 0 1001.5 744.8;" xml:space="preserve">
<style type="text/css">
	.st0{fill:url(#SVGID_1_);}
	.st1{opacity:0.25;fill:#FFFFFF;stroke:#FFFFFF;stroke-miterlimit:10;}
	.st2{opacity:0.43;fill:#FFFFFF;stroke:#FFFFFF;stroke-miterlimit:10;enable-background:new    ;}
</style>
<linearGradient id="SVGID_1_" gradientUnits="userSpaceOnUse" x1="1" y1="309.655" x2="1003.9084" y2="309.655">
	<stop  offset="0" style="stop-color:#D85433"/>
	<stop  offset="1" style="stop-color:#EC9412"/>
</linearGradient>
<path class="st0" d="M1001,3.7c-21,9.8-97.7,79.4-288.1,80.7C517.4,85.8,466.8,1.8,224,1.8C112,1.8,16.1,36.7,1,42.5v496.8v77v1.1
	c0,0,0,0,0.1-0.1c0,0,0,0,0,0c0.1-0.1,0.2-0.2,0.3-0.3c0,0,0,0,0,0c0.4-0.4,1.2-1.1,2.2-1.9c0,0,0.1,0,0.1-0.1
	c0.3-0.3,0.7-0.6,1-0.9c0,0,0.1-0.1,0.1-0.1c0.8-0.7,1.7-1.5,2.8-2.4c23-19.4,102.6-81.3,191.1-87.5c-1-0.3-1.9-0.5-2.9-0.7
	c1,0.2,1.9,0.5,2.9,0.7c4.7-0.3,9.4-0.5,14.2-0.5c5.1,0,10.1,0.2,15.1,0.5c81.8,4.9,162.2,48,247.4,64.2c0,0,0.1,0,0.1,0
	c1.7,0.3,3.4,0.6,5,0.9c0.1,0,0.2,0,0.3,0.1c1.6,0.3,3.3,0.6,4.9,0.8c0.2,0,0.3,0.1,0.5,0.1c1.6,0.3,3.1,0.5,4.7,0.7
	c0.2,0,0.4,0.1,0.6,0.1c1.5,0.2,3,0.4,4.6,0.6c0.3,0,0.5,0.1,0.8,0.1c1.5,0.2,2.9,0.4,4.4,0.5c0.3,0,0.7,0.1,1,0.1
	c1.4,0.2,2.8,0.3,4.2,0.4c0.4,0,0.8,0.1,1.2,0.1c1.4,0.1,2.7,0.2,4.1,0.4c0.4,0,0.9,0.1,1.3,0.1c1.3,0.1,2.6,0.2,3.9,0.3
	c0.5,0,1,0.1,1.5,0.1c1.3,0.1,2.5,0.1,3.8,0.2c0.5,0,1.1,0.1,1.6,0.1c1.2,0.1,2.5,0.1,3.7,0.1c0.6,0,1.1,0,1.7,0.1
	c1.2,0,2.4,0,3.6,0.1c0.6,0,1.2,0,1.8,0c1.2,0,2.4,0,3.6,0c0.6,0,1.2,0,1.8,0c1.3,0,2.5-0.1,3.8-0.1c0.5,0,1.1,0,1.6,0
	c1.8-0.1,3.6-0.1,5.4-0.2c2-0.1,3.9-0.2,5.9-0.4c0.6,0,1.1-0.1,1.7-0.1c1.4-0.1,2.9-0.2,4.3-0.3c0.6,0,1.2-0.1,1.8-0.2
	c1.4-0.1,2.8-0.2,4.2-0.4c0.6-0.1,1.1-0.1,1.7-0.2c1.5-0.1,3-0.3,4.5-0.4c0.5,0,1-0.1,1.5-0.2c1.6-0.2,3.2-0.3,4.8-0.5
	c0.4,0,0.8-0.1,1.2-0.1c1.7-0.2,3.5-0.4,5.2-0.6c0.3,0,0.6-0.1,0.9-0.1c1.9-0.2,3.8-0.5,5.6-0.7c0.1,0,0.3,0,0.4-0.1
	c100.9-12.9,211.2-47.6,275.9-54c0,0,0,0,0,0c2.8-0.3,5.5-0.5,8.2-0.7c0.2,0,0.3,0,0.5,0c1.1-0.1,2.1-0.1,3.2-0.2c0.3,0,0.5,0,0.8,0
	c1.2,0,2.4-0.1,3.5-0.1c1.6,0,3.3,0,4.9,0c0.4,0,0.8,0,1.1,0c1.7,0,3.3,0.1,5,0.1c35.5,1.3,74.4,11.1,103.2,20.1 M186.7,521.2
	c2.5,0.6,5.1,1.2,7.6,1.9C191.8,522.4,189.2,521.8,186.7,521.2z"/>
<path class="st1" d="M551,594c119.7-6.7,266.4-58,335.8-59.2c3.6-0.1,7.3,0,11,0.1c-17.3-9.7-35.4-17.3-54-22.9c-13.4-4-27.1-7-41-9
	c-44.2-6.2-83.8,6.1-109.9,16.4c-34.8,13.7-67.7,29.6-67.7,29.6s-73.7,33.8-159.6,37.1c-0.2,0-0.5,0-0.7,0
	C493.1,592.2,521.7,595.6,551,594z"/>
<path class="st1" d="M138.6,512.5C64.9,506.9,1,539.3,1,539.3v78.1c0,0,92.6-85.9,197.7-93.3C175.4,518.1,154.7,513.7,138.6,512.5z"
	/>
<path class="st2" d="M551,594c16.2-0.9,32.9-2.6,49.9-4.9c-72.1-23-132.4-76.6-243.5-76.5c-46.9-0.5-90.2,4.1-129.3,11.6
	C333.6,530.5,436.7,600.4,551,594z"/>
<path class="st2" d="M870.6,535.9c5.8-0.6,11.2-0.9,16.2-1c38.3-0.6,82.4,10.3,114.2,20.2v-48.2
	C949.4,506.8,909.7,519.6,870.6,535.9z"/>
<path class="st2" d="M1,616.3v1.1c0,0,2.4-2.2,6.7-5.9C3.3,614.6,1,616.3,1,616.3z"/>
</svg>
