<?xml version="1.0" encoding="utf-8"?>
<!-- Generator: Adobe Illustrator 23.1.1, SVG Export Plug-In . SVG Version: 6.00 Build 0)  -->
<svg version="1.1" id="Camada_2" xmlns="http://www.w3.org/2000/svg" xmlns:xlink="http://www.w3.org/1999/xlink" x="0px" y="0px"
	 viewBox="0 0 1000 795" style="enable-background:new 0 0 1000 795;" xml:space="preserve">
<style type="text/css">
	.st0{fill:url(#SVGID_1_);}
	.st1{opacity:0.25;fill:#FFFFFF;stroke:#FFFFFF;stroke-miterlimit:10;}
	.st2{opacity:0.43;fill:#FFFFFF;stroke:#FFFFFF;stroke-miterlimit:10;enable-background:new    ;}
</style>
<linearGradient id="SVGID_1_" gradientUnits="userSpaceOnUse" x1="0" y1="384.3362" x2="1002.9084" y2="384.3362">
	<stop  offset="0" style="stop-color:#D85433"/>
	<stop  offset="1" style="stop-color:#EC9412"/>
</linearGradient>
<path class="st0" d="M0,0v193.71v61.77v435.05v77.02v1.12c0,0,0.04-0.04,0.1-0.1c0,0,0.01-0.01,0.01-0.01
	c0.07-0.06,0.17-0.15,0.29-0.27c0.01-0.01,0.03-0.03,0.04-0.04c0.43-0.39,1.17-1.05,2.19-1.95c0.02-0.02,0.05-0.04,0.08-0.07
	c0.32-0.28,0.67-0.58,1.04-0.9c0.04-0.03,0.08-0.07,0.11-0.1c0.8-0.69,1.73-1.49,2.76-2.36c22.96-19.41,102.59-81.27,191.09-87.47
	c-0.97-0.25-1.93-0.5-2.9-0.75c0.96,0.25,1.92,0.49,2.89,0.74c4.71-0.33,9.45-0.51,14.2-0.51c5.06,0,10.11,0.16,15.15,0.47
	c81.79,4.95,162.15,48.02,247.38,64.17c0.05,0.01,0.09,0.02,0.14,0.03c1.68,0.32,3.36,0.62,5.05,0.92c0.1,0.02,0.2,0.04,0.31,0.05
	c1.63,0.28,3.25,0.56,4.88,0.82c0.16,0.03,0.32,0.05,0.48,0.08c1.57,0.25,3.14,0.49,4.71,0.72c0.22,0.03,0.43,0.07,0.65,0.1
	c1.52,0.22,3.04,0.43,4.56,0.63c0.27,0.04,0.54,0.07,0.81,0.11c1.46,0.19,2.92,0.37,4.38,0.54c0.33,0.04,0.66,0.08,0.99,0.12
	c1.41,0.16,2.81,0.31,4.22,0.45c0.38,0.04,0.77,0.08,1.15,0.12c1.35,0.13,2.71,0.25,4.06,0.36c0.44,0.04,0.88,0.08,1.32,0.11
	c1.3,0.1,2.61,0.19,3.92,0.28c0.49,0.03,0.98,0.07,1.47,0.1c1.26,0.08,2.53,0.14,3.79,0.2c0.53,0.03,1.06,0.06,1.6,0.08
	c1.22,0.05,2.45,0.09,3.68,0.13c0.57,0.02,1.15,0.04,1.72,0.06c1.19,0.03,2.39,0.04,3.59,0.06c0.61,0.01,1.21,0.02,1.81,0.02
	c1.2,0.01,2.4-0.01,3.6-0.02c0.6,0,1.21,0,1.81-0.01c1.27-0.02,2.54-0.06,3.8-0.09c0.54-0.02,1.08-0.02,1.61-0.04
	c1.81-0.06,3.61-0.14,5.43-0.25c1.96-0.11,3.93-0.23,5.91-0.37c0.55-0.04,1.11-0.08,1.66-0.12c1.44-0.1,2.88-0.2,4.32-0.32
	c0.61-0.05,1.22-0.1,1.83-0.15c1.41-0.12,2.83-0.23,4.25-0.36c0.57-0.05,1.14-0.11,1.71-0.16c1.48-0.14,2.97-0.28,4.45-0.42
	c0.5-0.05,0.99-0.1,1.49-0.15c1.59-0.16,3.19-0.33,4.79-0.5c0.4-0.04,0.79-0.09,1.19-0.13c1.72-0.19,3.45-0.39,5.18-0.59
	c0.28-0.03,0.57-0.07,0.85-0.1c1.88-0.22,3.76-0.46,5.64-0.7c0.15-0.02,0.29-0.04,0.44-0.06c100.85-12.91,211.2-47.64,275.92-54.02
	c0,0-0.01,0-0.01,0c2.82-0.28,5.55-0.5,8.19-0.67c0.16-0.01,0.31-0.02,0.47-0.03c1.07-0.07,2.13-0.12,3.17-0.17
	c0.27-0.01,0.55-0.03,0.82-0.04c1.2-0.05,2.38-0.08,3.53-0.1c1.62-0.03,3.26-0.02,4.9-0.01c0.38,0,0.76,0.01,1.14,0.01
	c1.65,0.02,3.31,0.06,4.97,0.12c35.51,1.32,74.35,11.13,103.17,20.12V255.49V154.92V0H0z M185.74,672.39
	c2.51,0.61,5.05,1.24,7.64,1.9C190.79,673.63,188.25,673,185.74,672.39z"/>
<path class="st1" d="M550,745.21c119.74-6.68,266.4-58,335.81-59.15c3.63-0.06,7.31-0.01,11.02,0.13
	c-17.26-9.67-35.35-17.27-53.99-22.87c-13.42-4.03-27.13-7.04-41-9c-44.16-6.23-83.79,6.11-109.91,16.37
	c-34.79,13.67-67.65,29.6-67.65,29.6s-73.67,33.75-159.62,37.1c-0.23,0.01-0.46,0.01-0.69,0.02
	C492.06,743.46,520.66,746.85,550,745.21z"/>
<path class="st1" d="M137.59,663.72C63.92,658.14,0,690.53,0,690.53v78.14c0,0,92.6-85.9,197.72-93.27
	C174.4,669.33,153.74,664.95,137.59,663.72z"/>
<path class="st2" d="M550,745.21c16.22-0.9,32.93-2.63,49.88-4.94c-72.1-22.98-132.43-76.56-243.52-76.53
	c-46.92-0.49-90.23,4.12-129.3,11.62C332.58,681.75,435.72,751.59,550,745.21z"/>
<path class="st2" d="M869.63,687.06c5.76-0.57,11.18-0.92,16.18-1c38.29-0.61,82.36,10.32,114.19,20.25v-48.2
	C948.41,657.98,908.65,670.77,869.63,687.06z"/>
<path class="st2" d="M0,767.55v1.12c0,0,2.35-2.18,6.72-5.87C2.29,765.82,0,767.55,0,767.55z"/>
</svg>
