<?xml version="1.0" encoding="utf-8"?>
<!-- Generator: Adobe Illustrator 23.1.1, SVG Export Plug-In . SVG Version: 6.00 Build 0)  -->
<svg version="1.1" xmlns="http://www.w3.org/2000/svg" xmlns:xlink="http://www.w3.org/1999/xlink" x="0px" y="0px"
	 viewBox="0 0 408 488" style="enable-background:new 0 0 408 488;" xml:space="preserve">
<style type="text/css">
	.st0{fill:#F6BC06;}
</style>
<g id="Camada_4">
	<path class="st0" d="M210.94,98.82c0,0-97.53,35.86-112.81,38.09c-12.46,1.82-25.12,6.51-28.95,8.79c-2.58,1.53-7.4,6.49-8.86,8.16
		c-1.47,1.67-12,10.67-14.86,13.67c-2.86,3-19.26,17.23-26.88,45.51s-5.95,34.23-5.95,34.23s-7.44,8.37-6.14,16.19
		c1.3,7.81,2.23,11.72,4.47,13.95c2.23,2.23,2.98,15.26,2.98,15.26s4.84,71.63,27.16,116.65s57.67,56.19,94.51,63.63
		s53.95,9.3,53.95,9.3s32.74,8.56,62.14-5.21c29.4-13.77,63.26-32.37,63.26-32.37s28.28-20.84,43.16-36.84s60.46-60.09,44.84-126.51
		s-65.3-128.93-65.3-128.93s-25.67-35.16-66.42-49.67S210.94,98.82,210.94,98.82z"/>
</g>
</svg>
