<?xml version="1.0" encoding="utf-8"?>
<!-- Generator: Adobe Illustrator 23.1.1, SVG Export Plug-In . SVG Version: 6.00 Build 0)  -->
<svg version="1.1" id="Camada_4" xmlns="http://www.w3.org/2000/svg" xmlns:xlink="http://www.w3.org/1999/xlink" x="0px" y="0px"
	 viewBox="0 0 434.8 374" style="enable-background:new 0 0 434.8 374;" xml:space="preserve">
<style type="text/css">
	.st0{fill:#F6BC04;}
</style>
<path class="st0" d="M189.3,35.6c-15.3,12.8-36.4,29.6-45.4,33c-14.9,5.6-16.4,12.3-83.7,15.6s-62.3,32.9-54.5,52.5s22,41.6,22,41.6
	s25.7,32.4,25.1,62.5s-9.8,73.4-9.8,73.4s-4.5,29,19.5,35.2s44.4,7.2,75.9,0s44.9-9.5,44.9-9.5s22.6-3.1,45.5,12.6
	s41.3,34.3,75.9,4.7s60.8-57.5,72.6-68.6s44.1-38.5,49.1-44.6s13.4-27.4,0-51.9s-21.2-39.1-22.9-77s1.1-75.9-36.8-94.3
	c-35.4-17.2-85.6-31-146.7-6C215.7,16.5,199.3,27.3,189.3,35.6z"/>
</svg>
