<?xml version="1.0" encoding="utf-8"?>
<!-- Generator: Adobe Illustrator 23.1.1, SVG Export Plug-In . SVG Version: 6.00 Build 0)  -->
<svg version="1.1" xmlns="http://www.w3.org/2000/svg" xmlns:xlink="http://www.w3.org/1999/xlink" x="0px" y="0px"
	 viewBox="0 0 28.07 29.15" style="enable-background:new 0 0 28.07 29.15;" xml:space="preserve">
<style type="text/css">
	.st0{fill:#C92525;}
</style>
<g id="Camada_2">
</g>
<g id="Camada_3">
</g>
<g id="Camada_4">
</g>
<g id="Camada_6">
</g>
<g id="Camada_5_cópia">
</g>
<g id="Camada_7_cópia">
	<path class="st0" d="M19.69,14.58l6.19-6.19c1.51-1.51,1.51-3.95,0-5.46l-0.2-0.2c-1.51-1.51-3.95-1.51-5.46,0l-6.19,6.19
		L7.85,2.73c-1.51-1.51-3.95-1.51-5.46,0l-0.2,0.2c-1.51,1.51-1.51,3.95,0,5.46l6.19,6.19l-6.19,6.19c-1.51,1.51-1.51,3.95,0,5.46
		l0.2,0.2c1.51,1.51,3.95,1.51,5.46,0l6.19-6.19l6.19,6.19c1.51,1.51,3.95,1.51,5.46,0l0.2-0.2c1.51-1.51,1.51-3.95,0-5.46
		L19.69,14.58z"/>
</g>
</svg>
